<svg width="287" height="23" viewBox="0 0 287 23" fill="white" xmlns="http://www.w3.org/2000/svg">
<path d="M13.9528 11.712L11.3368 18H6.94481L0.776813 1.68H5.12081L9.51281 13.464L12.1768 6.936L10.2568 1.68H14.6488L18.4888 12.816L22.6408 1.68H27.0568L20.7448 18H16.3768L13.9528 11.712ZM33.7911 18.36C29.9031 18.36 27.0471 15.552 27.0471 11.736C27.0471 7.92 29.9031 5.112 33.7911 5.112C37.6791 5.112 40.5351 7.92 40.5351 11.736C40.5351 15.552 37.6791 18.36 33.7911 18.36ZM33.7911 14.688C35.4951 14.688 36.6711 13.392 36.6711 11.736C36.6711 10.08 35.4951 8.784 33.7911 8.784C32.0871 8.784 30.9351 10.08 30.9351 11.736C30.9351 13.392 32.0871 14.688 33.7911 14.688ZM50.7467 5.232C51.6587 5.232 52.5227 5.496 53.2427 5.952L52.0187 9.432C51.4667 9.168 50.7227 8.952 49.9547 8.952C48.6107 8.952 47.6747 9.84 47.3387 10.992V18H43.3067V5.448H47.3387V7.632C48.0587 6.192 49.1147 5.232 50.7467 5.232ZM59.1741 0.959999V13.632C59.1741 14.376 59.4141 14.856 60.0381 14.856C60.4701 14.856 60.8781 14.712 61.2861 14.52L61.4541 17.712C60.8541 17.928 59.6781 18.24 58.4061 18.24C56.4141 18.24 55.1421 17.28 55.1421 14.64V0.959999H59.1741ZM72.2436 0.959999H76.2756V18H72.2436V16.752C71.4516 17.616 70.2996 18.24 68.6916 18.24C65.2356 18.24 62.8836 15.504 62.8836 11.712C62.8836 7.92 65.2356 5.232 68.6916 5.232C70.2036 5.232 71.4036 5.832 72.2436 6.648V0.959999ZM69.8436 14.736C70.7796 14.736 71.7396 14.304 72.2436 13.824V9.672C71.6436 9.096 70.7316 8.736 69.8436 8.736C68.1156 8.736 66.9876 9.888 66.9876 11.712C66.9876 13.56 68.1156 14.736 69.8436 14.736ZM93.1965 1.68C98.0205 1.68 101.621 4.56 101.621 9.864C101.621 15.12 98.0205 18 93.1965 18H85.8525V1.68H93.1965ZM93.0045 14.496C95.6445 14.496 97.4445 12.84 97.4445 9.864C97.4445 6.84 95.6445 5.184 93.0045 5.184H89.8845V14.496H93.0045ZM104.263 1.992C104.263 0.623999 105.151 0.144 106.495 0.144C107.863 0.144 108.751 0.623999 108.751 1.992C108.751 3.36 107.863 3.888 106.495 3.888C105.151 3.888 104.263 3.36 104.263 1.992ZM104.479 5.448H108.511V18H104.479V5.448ZM120.689 5.448H124.721V16.272C124.721 20.616 121.625 22.752 118.121 22.752C115.481 22.752 113.897 21.936 113.009 21.552L113.849 18.408C114.689 18.864 116.057 19.56 117.905 19.56C119.417 19.56 120.689 18.936 120.689 17.112V15.888C119.849 16.704 118.649 17.28 117.137 17.28C113.681 17.28 111.329 14.568 111.329 11.28C111.329 7.944 113.681 5.232 117.137 5.232C118.745 5.232 119.897 5.832 120.689 6.696V5.448ZM118.289 13.776C119.177 13.776 120.089 13.392 120.689 12.864V9.672C120.185 9.144 119.225 8.736 118.289 8.736C116.537 8.736 115.457 9.744 115.457 11.28C115.457 12.792 116.561 13.776 118.289 13.776ZM128.005 1.992C128.005 0.623999 128.893 0.144 130.237 0.144C131.605 0.144 132.493 0.623999 132.493 1.992C132.493 3.36 131.605 3.888 130.237 3.888C128.893 3.888 128.005 3.36 128.005 1.992ZM128.221 5.448H132.253V18H128.221V5.448ZM140.951 2.256V5.448H145.295V8.568H140.951V12.792C140.951 14.232 141.455 14.76 142.439 14.76C143.279 14.76 144.215 14.304 144.767 13.896L146.015 16.968C144.767 17.736 143.111 18.24 141.143 18.24C138.527 18.24 136.919 16.656 136.919 13.632V8.568H134.783V5.448H137.039L137.519 2.256H140.951ZM153.372 5.232C157.5 5.232 158.868 7.416 158.868 10.368V18H154.932V16.8C154.116 17.592 152.964 18.24 151.356 18.24C148.788 18.24 147.372 16.776 147.372 14.52C147.372 11.688 149.652 10.152 153.084 10.152C153.756 10.152 154.38 10.2 154.932 10.272C154.908 9 154.284 8.544 152.988 8.544C151.692 8.544 150.06 8.928 149.076 9.336L148.404 6.096C149.652 5.64 151.596 5.232 153.372 5.232ZM152.892 15.384C153.732 15.384 154.428 15.024 154.932 14.664V12.696C154.62 12.624 154.236 12.576 153.852 12.576C152.436 12.576 151.308 13.056 151.308 14.088C151.308 15.024 151.932 15.384 152.892 15.384ZM166.26 0.959999V13.632C166.26 14.376 166.5 14.856 167.124 14.856C167.556 14.856 167.964 14.712 168.372 14.52L168.54 17.712C167.94 17.928 166.764 18.24 165.492 18.24C163.5 18.24 162.228 17.28 162.228 14.64V0.959999H166.26ZM186.874 1.68H191.29L185.074 18H179.962L173.722 1.68H178.162L182.506 14.16L186.874 1.68ZM203.56 16.632C202.264 17.688 200.368 18.336 198.232 18.336C193.504 18.336 191.344 15.48 191.344 11.76C191.344 7.992 193.984 5.112 198.016 5.112C201.832 5.112 203.656 7.464 203.656 10.344C203.656 11.136 203.56 12.288 203.392 12.744H195.352C195.592 14.208 196.624 15.144 198.472 15.144C199.816 15.144 201.28 14.52 202.072 13.944L203.56 16.632ZM200.152 10.2C200.176 10.128 200.176 9.984 200.176 9.912C200.176 8.904 199.48 8.184 197.992 8.184C196.504 8.184 195.616 9.096 195.424 10.2H200.152ZM210.511 5.448V6.912C211.471 5.856 212.791 5.232 214.471 5.232C217.879 5.232 219.271 7.704 219.271 10.776V18H215.239V11.448C215.239 9.84 214.543 8.952 213.031 8.952C211.711 8.952 210.895 9.768 210.511 10.512V18H206.479V5.448H210.511ZM227.717 2.256V5.448H232.061V8.568H227.717V12.792C227.717 14.232 228.221 14.76 229.205 14.76C230.045 14.76 230.981 14.304 231.533 13.896L232.781 16.968C231.533 17.736 229.877 18.24 227.909 18.24C225.293 18.24 223.685 16.656 223.685 13.632V8.568H221.549V5.448H223.805L224.285 2.256H227.717ZM243.618 18V16.536C242.682 17.592 241.338 18.216 239.658 18.216C236.25 18.216 234.858 15.744 234.858 12.672V5.448H238.89V12C238.89 13.608 239.61 14.496 241.098 14.496C242.442 14.496 243.234 13.656 243.618 12.936V5.448H247.65V18H243.618ZM258.59 5.232C259.502 5.232 260.366 5.496 261.086 5.952L259.862 9.432C259.31 9.168 258.566 8.952 257.798 8.952C256.454 8.952 255.518 9.84 255.182 10.992V18H251.15V5.448H255.182V7.632C255.902 6.192 256.958 5.232 258.59 5.232ZM274.247 16.632C272.951 17.688 271.055 18.336 268.919 18.336C264.191 18.336 262.031 15.48 262.031 11.76C262.031 7.992 264.671 5.112 268.703 5.112C272.519 5.112 274.343 7.464 274.343 10.344C274.343 11.136 274.247 12.288 274.079 12.744H266.039C266.279 14.208 267.311 15.144 269.159 15.144C270.503 15.144 271.967 14.52 272.759 13.944L274.247 16.632ZM270.839 10.2C270.863 10.128 270.863 9.984 270.863 9.912C270.863 8.904 270.167 8.184 268.679 8.184C267.191 8.184 266.303 9.096 266.111 10.2H270.839ZM285.638 9.312C284.462 8.712 283.166 8.352 281.99 8.352C281.102 8.352 280.598 8.64 280.598 9.192C280.598 9.672 280.862 9.744 281.654 9.96L283.598 10.488C286.166 11.184 286.958 12.48 286.958 14.16C286.958 16.608 284.846 18.24 281.534 18.24C279.326 18.24 277.55 17.64 276.59 17.16L277.382 14.04C278.534 14.64 279.974 15.192 281.318 15.192C282.398 15.192 282.998 15 282.998 14.424C282.998 13.992 282.542 13.752 281.654 13.512L279.878 13.032C277.598 12.432 276.662 11.328 276.662 9.432C276.662 6.936 278.582 5.232 282.086 5.232C283.742 5.232 285.662 5.688 286.646 6.168L285.638 9.312Z" fill="white"/>
</svg>
